<?xml version="1.0" standalone="no"?>
<!DOCTYPE svg PUBLIC "-//W3C//DTD SVG 20010904//EN"
 "http://www.w3.org/TR/2001/REC-SVG-20010904/DTD/svg10.dtd">
<svg version="1.0" xmlns="http://www.w3.org/2000/svg"
 width="82.000000pt" height="82.000000pt" viewBox="0 0 82.000000 82.000000"
 preserveAspectRatio="xMidYMid meet">
<metadata>
Created by potrace 1.14, written by Peter Selinger 2001-2017
</metadata>
<g transform="translate(0.000000,82.000000) scale(0.100000,-0.100000)"
fill="#000000" stroke="none">
<path d="M0 410 l0 -410 410 0 410 0 0 410 0 410 -410 0 -410 0 0 -410z m800
0 l0 -390 -390 0 -390 0 0 390 0 390 390 0 390 0 0 -390z"/>
<path d="M40 410 l0 -370 370 0 370 0 0 370 0 370 -370 0 -370 0 0 -370z m248
166 c3 -6 7 -53 8 -103 2 -85 0 -93 -17 -93 -17 0 -19 8 -19 85 l0 85 -40 0
-40 0 0 -85 c0 -74 -2 -85 -17 -85 -16 0 -18 10 -15 92 1 51 5 99 7 106 6 16
122 14 133 -2z m351 -89 c18 -43 35 -85 38 -93 10 -26 -33 -16 -45 11 -10 20
-19 25 -51 25 -33 0 -40 -4 -45 -25 -5 -21 -12 -25 -40 -25 -34 0 -35 2 -65
78 -33 86 -27 88 -67 -25 -14 -39 -24 -53 -37 -53 -11 0 -17 5 -15 13 84 227
89 231 140 102 18 -47 35 -85 39 -85 3 0 20 37 39 83 49 122 57 122 109 -6z
m-19 -138 c0 -16 -32 -31 -55 -25 -40 10 -30 31 15 31 22 0 40 -2 40 -6z
m-361 -45 c19 -14 22 -23 18 -55 -3 -22 -1 -39 5 -41 6 -2 11 -17 11 -33 0
-42 -34 -65 -94 -65 l-49 0 0 105 0 105 43 0 c23 0 53 -7 66 -16z m188 -88
c24 -55 43 -101 43 -103 0 -1 -9 -3 -20 -3 -12 0 -25 10 -32 25 -9 20 -18 25
-48 25 -30 0 -39 -5 -48 -25 -7 -15 -20 -25 -33 -25 -11 0 -19 4 -17 8 71 175
84 202 97 200 8 -2 34 -48 58 -102z m95 32 l3 -73 40 72 c31 57 45 73 63 73
21 0 22 -3 22 -105 0 -98 -1 -105 -20 -105 -17 0 -19 8 -22 71 l-3 72 -40 -71
c-31 -55 -45 -72 -62 -72 -22 0 -23 3 -23 105 0 98 1 105 20 105 17 0 19 -8
22 -72z"/>
<path d="M572 500 c-7 -19 -6 -26 5 -28 22 -5 27 5 16 30 l-11 23 -10 -25z"/>
<path d="M190 260 c0 -15 7 -20 25 -20 18 0 25 5 25 20 0 15 -7 20 -25 20 -18
0 -25 -5 -25 -20z"/>
<path d="M190 175 c0 -21 5 -25 29 -25 31 0 46 21 28 39 -6 6 -21 11 -34 11
-18 0 -23 -6 -23 -25z"/>
<path d="M380 241 c0 -5 -3 -16 -6 -25 -4 -12 0 -16 16 -16 16 0 20 4 16 16
-3 9 -6 20 -6 25 0 5 -4 9 -10 9 -5 0 -10 -4 -10 -9z"/>
</g>
</svg>
